HIERARCHY
ROOT Hips
{
	OFFSET 0.00000 0.00000 0.00000
	CHANNELS 6 Xposition Yposition Zposition Zrotation Yrotation Xrotation 
	JOINT LHipJoint
	{
		OFFSET 0 0 0
		CHANNELS 3 Zrotation Yrotation Xrotation
		JOINT LeftUpLeg
		{
			OFFSET 1.48831 -1.59570 0.95625
			CHANNELS 3 Zrotation Yrotation Xrotation
			JOINT LeftLeg
			{
				OFFSET 2.20856 -6.06797 0.00000
				CHANNELS 3 Zrotation Yrotation Xrotation
				JOINT LeftFoot
				{
					OFFSET 2.62924 -7.22379 0.00000
					CHANNELS 3 Zrotation Yrotation Xrotation
					JOINT LeftToeBase
					{
						OFFSET 0.16802 -0.46163 2.41673
						CHANNELS 3 Zrotation Yrotation Xrotation
						End Site
						{
							OFFSET 0.00000 -0.00000 1.23760
						}
					}
				}
			}
		}
	}
	JOINT RHipJoint
	{
		OFFSET 0 0 0
		CHANNELS 3 Zrotation Yrotation Xrotation
		JOINT RightUpLeg
		{
			OFFSET -1.56796 -1.59570 0.95625
			CHANNELS 3 Zrotation Yrotation Xrotation
			JOINT RightLeg
			{
				OFFSET -2.29239 -6.29829 0.00000
				CHANNELS 3 Zrotation Yrotation Xrotation
				JOINT RightFoot
				{
					OFFSET -2.66963 -7.33475 0.00000
					CHANNELS 3 Zrotation Yrotation Xrotation
					JOINT RightToeBase
					{
						OFFSET -0.18185 -0.49964 2.34359
						CHANNELS 3 Zrotation Yrotation Xrotation
						End Site
						{
							OFFSET -0.00000 -0.00000 1.20477
						}
					}
				}
			}
		}
	}
	JOINT LowerBack
	{
		OFFSET 0 0 0
		CHANNELS 3 Zrotation Yrotation Xrotation
		JOINT Spine
		{
			OFFSET 0.03505 2.15832 -0.34324
			CHANNELS 3 Zrotation Yrotation Xrotation
			JOINT Spine1
			{
				OFFSET -0.01089 2.17963 0.04689
				CHANNELS 3 Zrotation Yrotation Xrotation
				JOINT Neck
				{
					OFFSET 0 0 0
					CHANNELS 3 Zrotation Yrotation Xrotation
					JOINT Neck1
					{
						OFFSET 0.04686 1.69404 0.22159
						CHANNELS 3 Zrotation Yrotation Xrotation
						JOINT Head
						{
							OFFSET 0.00265 1.69305 -0.01513
							CHANNELS 3 Zrotation Yrotation Xrotation
							End Site
							{
								OFFSET -0.00415 1.80215 -0.03034
							}
						}
					}
				}
				JOINT LeftShoulder
				{
					OFFSET 0 0 0
					CHANNELS 3 Zrotation Yrotation Xrotation
					JOINT LeftArm
					{
						OFFSET 3.67184 1.11724 -0.19002
						CHANNELS 3 Zrotation Yrotation Xrotation
						JOINT LeftForeArm
						{
							OFFSET 5.17714 -0.00000 -0.00000
							CHANNELS 3 Zrotation Yrotation Xrotation
							JOINT LeftHand
							{
								OFFSET 3.43679 -0.00000 -0.00000
								CHANNELS 3 Zrotation Yrotation Xrotation
								JOINT LeftFingerBase
								{
									OFFSET 0 0 0
									CHANNELS 3 Zrotation Yrotation Xrotation
									JOINT LeftHandIndex1
									{
										OFFSET 0.57312 -0.00000 -0.00000
										CHANNELS 3 Zrotation Yrotation Xrotation
										End Site
										{
											OFFSET 0.46206 -0.00000 -0.00000
										}
									}
								}
								JOINT LThumb
								{
									OFFSET 0 0 0
									CHANNELS 3 Zrotation Yrotation Xrotation
									End Site
									{
										OFFSET 0.46912 -0.00000 0.46912
									}
								}
							}
						}
					}
				}
				JOINT RightShoulder
				{
					OFFSET 0 0 0
					CHANNELS 3 Zrotation Yrotation Xrotation
					JOINT RightArm
					{
						OFFSET -3.59596 0.95831 -0.26050
						CHANNELS 3 Zrotation Yrotation Xrotation
						JOINT RightForeArm
						{
							OFFSET -5.23908 -0.00000 -0.00000
							CHANNELS 3 Zrotation Yrotation Xrotation
							JOINT RightHand
							{
								OFFSET -3.46485 -0.00000 -0.00000
								CHANNELS 3 Zrotation Yrotation Xrotation
								JOINT RightFingerBase
								{
									OFFSET 0 0 0
									CHANNELS 3 Zrotation Yrotation Xrotation
									JOINT RightHandIndex1
									{
										OFFSET -0.60875 -0.00000 -0.00000
										CHANNELS 3 Zrotation Yrotation Xrotation
										End Site
										{
											OFFSET -0.49079 -0.00000 -0.00000
										}
									}
								}
								JOINT RThumb
								{
									OFFSET 0 0 0
									CHANNELS 3 Zrotation Yrotation Xrotation
									End Site
									{
										OFFSET -0.49829 -0.00000 0.49829
									}
								}
							}
						}
					}
				}
			}
		}
	}
}
MOTION
Frames: 5
Frame Time: .0083333
5.2622 16.2609 -24.0273 -176.0920 -46.6236 197.1320 0.0000 0.0000 0.0000 -15.0309 -8.2760 -41.1124 4.5782 12.8925 38.9672 0.9606 -1.0157 -18.2111 0.1094 -2.1327 -5.8726 0.0000 0.0000 0.0000 16.3205 25.6286 -43.8943 -5.4779 -13.9025 42.8483 -0.7854 -3.3815 -18.2979 -0.2482 -3.2061 8.8530 2.8926 -1.8990 29.1917 0.6649 -2.3094 5.5161 -0.0145 -1.4828 -9.9578 2.8716 -0.1262 -4.1570 0.7994 -0.4961 6.9818 -0.2601 -0.1689 2.9472 -0.0000 0.0000 0.0000 -80.2313 5.9415 38.0257 23.0116 -34.1015 -7.1448 -0.0000 0.0000 -25.0846 17.6684 4.9949 1.5886 -7.1250 0.0000 -0.0000 -7.4788 35.1408 1.8239 -0.0000 0.0000 0.0000 82.2576 -1.2833 35.7837 -21.2791 32.1527 -6.1978 0.0000 0.0000 5.0403 -11.4791 -5.5585 1.1269 7.1250 -0.0000 -0.0000 12.6424 -35.4114 3.0394
5.2504 16.2632 -24.0475 -176.0620 -46.6289 197.0590 0.0000 0.0000 0.0000 -15.0049 -8.2524 -40.9315 4.5678 12.8799 38.9205 0.9686 -0.9058 -18.3206 0.1187 -2.2213 -6.1178 0.0000 0.0000 0.0000 16.4611 25.5391 -43.7181 -5.4681 -13.8923 42.8079 -0.7928 -3.2897 -18.3237 -0.2512 -3.2246 8.9047 2.8731 -1.9084 29.1356 0.6808 -2.3159 5.4513 0.0166 -1.4816 -10.0032 2.9026 -0.1153 -4.2424 0.7583 -0.4872 7.1013 -0.2790 -0.1638 3.0042 -0.0000 0.0000 0.0000 -80.1213 6.0748 38.1097 23.1175 -34.2170 -7.2043 -0.0000 0.0000 -25.1087 17.7243 4.9914 1.5929 -7.1250 0.0000 -0.0000 -7.4322 35.1398 1.8125 -0.0000 0.0000 0.0000 82.1813 -1.4030 35.6211 -21.1366 31.9875 -6.1222 0.0000 0.0000 5.1115 -11.3978 -5.5831 1.1236 7.1250 -0.0000 -0.0000 12.7132 -35.4317 3.0507
5.2398 16.2654 -24.0666 -176.0340 -46.6430 197.0040 0.0000 0.0000 0.0000 -14.9785 -8.2269 -40.7872 4.5599 12.8704 38.8852 0.9751 -0.8240 -18.4073 0.1265 -2.2927 -6.3154 0.0000 0.0000 0.0000 16.5875 25.4536 -43.5731 -5.4598 -13.8836 42.7730 -0.8001 -3.2004 -18.3498 -0.2530 -3.2365 8.9379 2.8543 -1.9215 29.0892 0.6976 -2.3279 5.3936 0.0505 -1.4833 -10.0453 2.9390 -0.0974 -4.2830 0.7097 -0.4667 7.1911 -0.3006 -0.1536 3.0428 -0.0000 -0.0000 0.0000 -80.0079 6.1961 38.1902 23.2334 -34.3431 -7.2695 -0.0000 0.0000 -25.1425 17.7892 4.9713 1.5927 -7.1250 0.0000 -0.0000 -7.3763 35.1219 1.8019 -0.0000 -0.0000 0.0000 82.1118 -1.5110 35.4572 -21.0207 31.8526 -6.0609 0.0000 0.0000 5.1772 -11.3523 -5.6138 1.1251 7.1250 -0.0000 -0.0000 12.7558 -35.4598 3.0523
5.2303 16.2676 -24.0845 -176.0090 -46.6587 196.9690 0.0000 0.0000 0.0000 -14.9541 -8.1965 -40.6754 4.5534 12.8625 38.8558 0.9798 -0.7645 -18.4702 0.1325 -2.3466 -6.4646 0.0000 0.0000 0.0000 16.6966 25.3820 -43.4555 -5.4523 -13.8757 42.7418 -0.8068 -3.1206 -18.3743 -0.2546 -3.2468 8.9667 2.8345 -1.9324 29.0490 0.7130 -2.3392 5.3465 0.0830 -1.4852 -10.0785 2.9793 -0.0790 -4.3071 0.6675 -0.4450 7.2632 -0.3208 -0.1428 3.0724 -0.0000 -0.0000 0.0000 -79.8878 6.2954 38.2711 23.3527 -34.4722 -7.3370 -0.0000 0.0000 -25.1808 17.8351 4.9444 1.5884 -7.1250 0.0000 -0.0000 -7.3354 35.0961 1.7965 -0.0000 -0.0000 0.0000 82.0569 -1.6018 35.2936 -20.9309 31.7476 -6.0135 0.0000 0.0000 5.2500 -11.3588 -5.7053 1.1441 7.1250 -0.0000 -0.0000 12.7666 -35.5512 3.0260
5.2218 16.2698 -24.1013 -175.9900 -46.6739 196.9540 0.0000 0.0000 0.0000 -14.9347 -8.1620 -40.5934 4.5470 12.8547 38.8270 0.9822 -0.7218 -18.5059 0.1367 -2.3834 -6.5664 0.0000 0.0000 0.0000 16.7851 25.3263 -43.3659 -5.4453 -13.8684 42.7128 -0.8122 -3.0557 -18.3951 -0.2551 -3.2494 8.9739 2.8138 -1.9410 29.0105 0.7264 -2.3497 5.3113 0.1133 -1.4872 -10.0986 3.0203 -0.0610 -4.3209 0.6354 -0.4242 7.3175 -0.3377 -0.1322 3.0939 -0.0000 0.0000 0.0000 -79.7681 6.3706 38.3439 23.4724 -34.6013 -7.4048 -0.0000 0.0000 -25.2301 17.8714 4.9189 1.5837 -7.1250 0.0000 -0.0000 -7.3025 35.0712 1.7927 -0.0000 0.0000 0.0000 82.0145 -1.6747 35.1264 -20.8612 31.6660 -5.9769 0.0000 0.0000 5.3167 -11.3951 -5.8155 1.1699 7.1250 -0.0000 -0.0000 12.7565 -35.6626 2.9880
